<svg id="Layer_1" data-name="Layer 1" xmlns="http://www.w3.org/2000/svg" viewBox="0 0 248.88 107.19"><defs><style>.cls-1{fill:#322e4d;}</style></defs><title>no-boundingboxkukacci-hnizdo_1</title><path class="cls-1" d="M15.67,18.7a1,1,0,0,1,1-.48h6.88a.5.5,0,0,1,.42.83L14.25,31.22l10.5,13.71a.49.49,0,0,1-.41.83H17a1,1,0,0,1-1-.53L7.3,33.59V45.05a.63.63,0,0,1-.71.71H.65c-.41,0-.65-.23-.65-.71V3.62c0-.48.24-.71.65-.71H6.59a.63.63,0,0,1,.71.71V29.68Z"/><path class="cls-1" d="M60.09,2.81A.77.77,0,0,0,59.45,2C55.38,1.26,39,1.59,28.11,0c-.44-.07-.77.43-.73.88,2.17,22.09.86,25.7,1.95,45.36a1,1,0,0,0,.86.92c9,1.11,25-1.77,28.62-2.47a.89.89,0,0,0,.71-.94L58.38,27.11ZM54.24,39.65a.47.47,0,0,1-.54.53h-2c-.29,0-.41-.12-.47-.41l-.48-2A14.51,14.51,0,0,1,42,40.6c-6.06,0-8.91-2.67-8.91-10.75V13.71a.48.48,0,0,1,.54-.54h3a.47.47,0,0,1,.53.54V30c0,5.76,2.26,7.12,5.58,7.12a14.33,14.33,0,0,0,7.36-1.9V13.71a.47.47,0,0,1,.53-.54h3a.48.48,0,0,1,.54.54Z"/><path class="cls-1" d="M80.92,18.61a1,1,0,0,1,1-.47l6.89,0a.5.5,0,0,1,.41.84L79.45,31.13,89.9,44.88a.49.49,0,0,1-.41.83l-7.37,0a.94.94,0,0,1-1-.54L72.49,33.48l0,11.45a.63.63,0,0,1-.71.71l-5.94,0c-.42,0-.65-.24-.65-.71l.16-41.44c0-.47.24-.71.65-.71l5.94,0a.63.63,0,0,1,.71.71l-.1,26.06Z"/><path class="cls-1" d="M106.84,28.08c0-3-1.43-4.09-4.52-4.09H94.84a.64.64,0,0,1-.71-.66V18.64a.64.64,0,0,1,.71-.65h8.73c7.42,0,10.63,3.15,10.63,11.16V44.82c0,.48-.24.71-.66.71h-4.27c-.36,0-.54-.06-.65-.35L107.84,43c-3,2-5,2.91-8.54,2.91a7.25,7.25,0,0,1-7.66-7.6c0-6,3.62-9,11.87-9h3.33ZM104,34c-3.68,0-5,1.54-5,3.68,0,1.84,1,2.85,2.55,2.85a12.61,12.61,0,0,0,5.29-1.49V34Z"/><path class="cls-1" d="M131.52,14.28a20.66,20.66,0,0,1,7.46,1,.49.49,0,0,1,.21.7l-.93,2.29a.55.55,0,0,1-.71.21,15.35,15.35,0,0,0-5.72-.7c-5.17.18-8.85,3.7-8.6,10.7.26,7.59,5,10.22,9.32,10.07a15.71,15.71,0,0,0,5.95-1.28.54.54,0,0,1,.72.15l1.09,2.22c.13.29.14.59-.16.72a17.85,17.85,0,0,1-7.66,1.75c-8.48.3-13.25-5.3-13.53-13.48S122.92,14.58,131.52,14.28ZM123,5.73a.6.6,0,0,1-.27-.83l1.42-2.06a.56.56,0,0,1,.82-.15l5.81,4.78a.53.53,0,0,0,.71,0L137,2.27a.57.57,0,0,1,.83.09l1.56,2a.59.59,0,0,1-.21.84l-7.46,6a.57.57,0,0,1-.83,0Z"/><path class="cls-1" d="M154.36,14.57a20.46,20.46,0,0,1,7.46,1,.5.5,0,0,1,.2.71l-.93,2.29a.52.52,0,0,1-.7.2,15.34,15.34,0,0,0-5.73-.69c-5.16.18-8.84,3.69-8.59,10.69.26,7.59,5,10.22,9.32,10.07a15.52,15.52,0,0,0,6-1.28.54.54,0,0,1,.72.16l1.08,2.22c.13.29.14.59-.15.71a17.84,17.84,0,0,1-7.66,1.76c-8.48.29-13.25-5.3-13.54-13.49S145.76,14.86,154.36,14.57ZM145.87,6a.57.57,0,0,1-.27-.82L147,3.12a.59.59,0,0,1,.83-.15l5.81,4.79a.53.53,0,0,0,.71,0l5.46-5.17a.57.57,0,0,1,.84.09l1.55,2a.57.57,0,0,1-.21.84l-7.45,6a.57.57,0,0,1-.83,0Z"/><path class="cls-1" d="M168,22.46c-.48,0-.72-.24-.72-.65V17.12c0-.42.24-.65.72-.65H183.7c.47,0,.71.23.71.65V37.78c0,.29.06.35.36.35H192a.63.63,0,0,1,.71.72V43.3A.63.63,0,0,1,192,44H168a.63.63,0,0,1-.72-.71V38.85a.64.64,0,0,1,.72-.72h8.72c.24,0,.36-.06.36-.35V22.46Zm8-8.66-1.48-1.67a.66.66,0,0,1,.11-.77l8.85-9.2a.53.53,0,0,1,.83,0l3,3.27a.57.57,0,0,1-.06.83l-10.39,7.6A.74.74,0,0,1,176,13.8Z"/><path class="cls-1" d="M63.73,60.63l7.78.89L69.57,78.39,82.9,79.92l1.94-16.86,7.78.9-4.75,41.27-7.78-.89,2-17L68.72,85.82l-2,17L59,101.91Z"/><path class="cls-1" d="M206.45,82.1h-1.07A11.56,11.56,0,0,1,204.23,84a7,7,0,0,1-1.78,1.63,9.68,9.68,0,0,1-2.62,1.13,14.24,14.24,0,0,1-3.65.41,12.87,12.87,0,0,1-5.07-1,11.32,11.32,0,0,1-4.1-2.91,13.46,13.46,0,0,1-2.73-4.71,19.4,19.4,0,0,1-1-6.41V71.12a18.15,18.15,0,0,1,1-6.35,13.73,13.73,0,0,1,2.85-4.72,12.15,12.15,0,0,1,4.21-2.94,13.08,13.08,0,0,1,5.08-1,10.35,10.35,0,0,1,5.64,1.33,9.19,9.19,0,0,1,3.26,3.77h1.07V44.82h7.48V86.37h-7.48Zm-7.83-2a7.55,7.55,0,0,0,5.67-2.23A8,8,0,0,0,206.45,72V71.3a8,8,0,0,0-2.16-5.85,7.55,7.55,0,0,0-5.67-2.23A7.63,7.63,0,0,0,193,65.39a8,8,0,0,0-2.17,5.91V72a7.94,7.94,0,0,0,2.17,5.9A7.63,7.63,0,0,0,198.62,80.08Z"/><path class="cls-1" d="M248.88,78.59a15.93,15.93,0,0,1-1.25,6.5,13.92,13.92,0,0,1-3.38,4.75,14.86,14.86,0,0,1-4.9,2.94,17.07,17.07,0,0,1-11.57,0,15,15,0,0,1-4.9-2.94,13.92,13.92,0,0,1-3.38-4.75,15.93,15.93,0,0,1-1.25-6.5v-.71a15.81,15.81,0,0,1,1.25-6.44,14.24,14.24,0,0,1,3.38-4.78,14.71,14.71,0,0,1,4.9-3,17.07,17.07,0,0,1,11.57,0,14.61,14.61,0,0,1,4.9,3,14.24,14.24,0,0,1,3.38,4.78,15.81,15.81,0,0,1,1.25,6.44Zm-15.31,8.07a8.46,8.46,0,0,0,3-.53,7.13,7.13,0,0,0,4.19-4,8.35,8.35,0,0,0,.62-3.29V77.64a8.39,8.39,0,0,0-.62-3.29,7.13,7.13,0,0,0-4.19-4,8.9,8.9,0,0,0-6.05,0,7.21,7.21,0,0,0-4.19,4,8.39,8.39,0,0,0-.62,3.29v1.19a8.35,8.35,0,0,0,.62,3.29,7.21,7.21,0,0,0,4.19,4A8.47,8.47,0,0,0,233.57,86.66Z"/><path class="cls-1" d="M128.11,87.9l1.54-32.31a.72.72,0,0,0-.85-.69L96.56,58.83a1,1,0,0,0-.86,1l1.47,41.48a1.2,1.2,0,0,0,1,1.19l30.87,4.67a.78.78,0,0,0,.89-.8Zm-5.06,5.87a.47.47,0,0,1-.54.53h-3a.47.47,0,0,1-.54-.53V77.45c0-5.76-2.25-7.13-5.58-7.13a14.35,14.35,0,0,0-7.36,1.9V93.77a.47.47,0,0,1-.53.53h-3a.47.47,0,0,1-.53-.53V67.83a.47.47,0,0,1,.53-.54h2c.3,0,.41.12.47.42l.48,2a14.46,14.46,0,0,1,8.72-2.79c6.06,0,8.91,2.67,8.91,10.74Z"/><path class="cls-1" d="M133.84,73.71a.47.47,0,0,1-.54-.53V70.8a.47.47,0,0,1,.54-.53h14.42a.47.47,0,0,1,.54.53V93.36c0,.36.11.48.41.48h9a.47.47,0,0,1,.54.53v2.37a.48.48,0,0,1-.54.54H133.84a.48.48,0,0,1-.54-.54V94.37a.47.47,0,0,1,.54-.53h10.44c.3,0,.42-.12.42-.48V73.71Zm8.07-6.65-.83-.89a.64.64,0,0,1,.12-.77l8.31-8.07a.53.53,0,0,1,.83,0L152,59.11a.57.57,0,0,1-.06.83l-9.2,7.18A.7.7,0,0,1,141.91,67.06Z"/><path class="cls-1" d="M179.08,59.67c.48,0,.71.23.71.65v4.81a1.45,1.45,0,0,1-.35,1L165.07,81.15h14a.65.65,0,0,1,.71.72V86.5a.63.63,0,0,1-.71.71H157.24a.63.63,0,0,1-.71-.71V81.75a1.22,1.22,0,0,1,.41-1l14.25-15.14H157.24c-.48,0-.71-.24-.71-.65V60.32c0-.42.23-.65.71-.65Z"/></svg>