<svg id="Layer_1" data-name="Layer 1" xmlns="http://www.w3.org/2000/svg" viewBox="0 0 262.98 125.11"><defs><style>.cls-1{fill:#fff;}</style></defs><title>white_kukacci-hnizdo_1</title><path class="cls-1" d="M21.53,28.78a1,1,0,0,1,1-.48h6.88a.51.51,0,0,1,.42.84L20.1,41.3,30.61,55a.49.49,0,0,1-.42.83H22.83a1,1,0,0,1-1-.54L13.16,43.68V55.13a.64.64,0,0,1-.72.72H6.51c-.42,0-.65-.24-.65-.72V13.7c0-.47.23-.71.65-.71h5.93a.63.63,0,0,1,.72.71V39.76Z"/><path class="cls-1" d="M66,12.89a.78.78,0,0,0-.64-.83c-4.07-.71-20.5-.39-31.34-2-.45-.07-.78.43-.73.88,2.17,22.09.86,25.7,1.95,45.37a1,1,0,0,0,.85.91c9,1.12,25-1.77,28.62-2.47a.89.89,0,0,0,.72-.93L64.23,37.19ZM60.09,49.73a.47.47,0,0,1-.53.53h-2c-.3,0-.42-.11-.48-.41l-.47-2a14.47,14.47,0,0,1-8.73,2.79c-6,0-8.9-2.67-8.9-10.74V23.79a.47.47,0,0,1,.53-.53h3a.47.47,0,0,1,.54.53V40.11c0,5.76,2.25,7.13,5.58,7.13A14.38,14.38,0,0,0,56,45.34V23.79a.46.46,0,0,1,.53-.53h3a.47.47,0,0,1,.53.53Z"/><path class="cls-1" d="M86.78,28.69a1,1,0,0,1,1-.47l6.88,0a.49.49,0,0,1,.41.83L85.3,41.21,95.76,55a.49.49,0,0,1-.42.83l-7.36,0a1,1,0,0,1-1-.54L78.35,43.56l0,11.46a.63.63,0,0,1-.72.71l-5.93,0c-.42,0-.65-.24-.65-.71l.15-41.43c0-.48.24-.71.66-.71l5.93,0a.63.63,0,0,1,.71.72l-.09,26.05Z"/><path class="cls-1" d="M112.69,38.16c0-3-1.42-4.09-4.51-4.09H100.7a.64.64,0,0,1-.71-.65V28.73a.64.64,0,0,1,.71-.66h8.73c7.42,0,10.62,3.15,10.62,11.16V54.9c0,.48-.24.72-.65.72h-4.27c-.36,0-.54-.06-.66-.36l-.77-2.14c-3,2-5,2.91-8.55,2.91a7.24,7.24,0,0,1-7.65-7.6c0-6,3.62-9,11.87-9h3.32Zm-2.85,5.94c-3.68,0-5,1.54-5,3.68,0,1.84,1,2.85,2.55,2.85a12.51,12.51,0,0,0,5.28-1.48v-5Z"/><path class="cls-1" d="M137.38,24.36a20.66,20.66,0,0,1,7.46,1,.5.5,0,0,1,.2.71l-.93,2.29a.52.52,0,0,1-.7.2,15.14,15.14,0,0,0-5.73-.69c-5.16.18-8.84,3.69-8.59,10.69.26,7.59,5,10.22,9.31,10.07a15.53,15.53,0,0,0,6-1.28.53.53,0,0,1,.72.16l1.08,2.21c.13.3.14.59-.15.72a17.74,17.74,0,0,1-7.66,1.75c-8.48.3-13.25-5.29-13.54-13.48S128.78,24.66,137.38,24.36Zm-8.49-8.55c-.37-.23-.44-.58-.27-.82L130,12.92a.58.58,0,0,1,.83-.15l5.81,4.79a.53.53,0,0,0,.71,0l5.46-5.18a.59.59,0,0,1,.84.09l1.55,2a.57.57,0,0,1-.21.84l-7.45,6a.58.58,0,0,1-.83,0Z"/><path class="cls-1" d="M160.22,24.65a20.29,20.29,0,0,1,7.46,1c.3.1.31.46.2.7L167,28.63a.54.54,0,0,1-.71.2,15.5,15.5,0,0,0-5.72-.69c-5.16.18-8.84,3.69-8.6,10.69.27,7.6,5,10.23,9.32,10.07a15.59,15.59,0,0,0,6-1.27.52.52,0,0,1,.71.15L169,50c.13.29.14.59-.15.72a18,18,0,0,1-7.66,1.75c-8.49.3-13.25-5.3-13.54-13.49S151.62,25,160.22,24.65Zm-8.5-8.56a.57.57,0,0,1-.26-.82l1.41-2.07a.58.58,0,0,1,.83-.14l5.81,4.78a.55.55,0,0,0,.71,0l5.46-5.18a.57.57,0,0,1,.83.09l1.56,2a.58.58,0,0,1-.21.84l-7.46,6a.56.56,0,0,1-.82,0Z"/><path class="cls-1" d="M173.88,32.55c-.47,0-.71-.24-.71-.66V27.2c0-.41.24-.65.71-.65h15.67c.48,0,.72.24.72.65V47.86c0,.3,0,.36.35.36h7.24a.63.63,0,0,1,.72.71v4.45a.63.63,0,0,1-.72.71h-24a.63.63,0,0,1-.71-.71V48.93a.63.63,0,0,1,.71-.71h8.73c.24,0,.35-.06.35-.36V32.55Zm8-8.67-1.49-1.66a.64.64,0,0,1,.12-.77l8.85-9.21a.54.54,0,0,1,.83,0l3,3.27a.59.59,0,0,1-.06.83l-10.39,7.6A.7.7,0,0,1,181.9,23.88Z"/><path class="cls-1" d="M69.58,70.71l7.79.9L75.43,88.47,88.75,90l1.94-16.87,7.79.9-4.75,41.28-7.79-.9,2-17L74.57,95.9l-1.95,17-7.79-.9Z"/><path class="cls-1" d="M212.31,92.18h-1.07a10.86,10.86,0,0,1-1.16,1.93,6.53,6.53,0,0,1-1.78,1.63,9.18,9.18,0,0,1-2.61,1.13,13.82,13.82,0,0,1-3.65.42,13.14,13.14,0,0,1-5.08-1,11.5,11.5,0,0,1-4.09-2.91,13.6,13.6,0,0,1-2.73-4.72,19.4,19.4,0,0,1-1-6.41V81.2a18,18,0,0,1,1-6.35,13.83,13.83,0,0,1,2.85-4.72,12.33,12.33,0,0,1,4.21-2.94,13,13,0,0,1,5.08-1A10.37,10.37,0,0,1,208,67.52a9.13,9.13,0,0,1,3.26,3.77h1.07V54.9h7.48V96.46h-7.48Zm-7.84-2a7.55,7.55,0,0,0,5.67-2.22,8,8,0,0,0,2.17-5.85v-.71a8,8,0,0,0-2.17-5.85,7.55,7.55,0,0,0-5.67-2.22,7.66,7.66,0,0,0-5.66,2.16,8,8,0,0,0-2.17,5.91v.71A8,8,0,0,0,198.81,88,7.66,7.66,0,0,0,204.47,90.16Z"/><path class="cls-1" d="M254.74,88.67a15.9,15.9,0,0,1-1.25,6.5,13.82,13.82,0,0,1-3.38,4.75,14.8,14.8,0,0,1-4.9,2.94,17.1,17.1,0,0,1-11.58,0,14.65,14.65,0,0,1-4.89-2.94,13.85,13.85,0,0,1-3.39-4.75,15.9,15.9,0,0,1-1.24-6.5V88a15.81,15.81,0,0,1,1.24-6.44,14.26,14.26,0,0,1,3.39-4.78,14.54,14.54,0,0,1,4.89-3,17.1,17.1,0,0,1,11.58,0,14.68,14.68,0,0,1,4.9,3,14.24,14.24,0,0,1,3.38,4.78A15.81,15.81,0,0,1,254.74,88Zm-15.32,8.08a8.48,8.48,0,0,0,3-.54,7.18,7.18,0,0,0,4.18-4,8.23,8.23,0,0,0,.63-3.3V87.73a8.23,8.23,0,0,0-.63-3.3A7.19,7.19,0,0,0,244.94,82a7.27,7.27,0,0,0-2.49-1.55,8.93,8.93,0,0,0-6.06,0,7.23,7.23,0,0,0-4.18,4,8.23,8.23,0,0,0-.62,3.3v1.18a8.23,8.23,0,0,0,.62,3.3,7.34,7.34,0,0,0,1.69,2.46,7.25,7.25,0,0,0,2.49,1.54A8.48,8.48,0,0,0,239.42,96.75Z"/><path class="cls-1" d="M134,98l1.54-32.31a.73.73,0,0,0-.85-.69l-32.24,3.93a1,1,0,0,0-.86,1L103,111.42a1.22,1.22,0,0,0,1,1.19l30.87,4.66a.79.79,0,0,0,.9-.8Zm-5.07,5.87a.47.47,0,0,1-.53.54h-3a.47.47,0,0,1-.53-.54V87.53c0-5.76-2.26-7.13-5.58-7.13a14.33,14.33,0,0,0-7.36,1.9v21.55a.48.48,0,0,1-.54.54h-3a.48.48,0,0,1-.54-.54V77.91a.47.47,0,0,1,.54-.53h2c.29,0,.41.12.47.41l.47,2A14.47,14.47,0,0,1,120,77c6,0,8.9,2.67,8.9,10.75Z"/><path class="cls-1" d="M139.69,83.8a.47.47,0,0,1-.53-.54V80.89a.47.47,0,0,1,.53-.54h14.43a.47.47,0,0,1,.53.54v22.55c0,.36.12.48.42.48h9a.47.47,0,0,1,.53.53v2.38a.47.47,0,0,1-.53.53H139.69a.47.47,0,0,1-.53-.53v-2.38a.47.47,0,0,1,.53-.53h10.45c.3,0,.42-.12.42-.48V83.8Zm8.08-6.65-.84-.89a.67.67,0,0,1,.12-.77l8.31-8.08a.54.54,0,0,1,.83,0l1.67,1.78a.59.59,0,0,1-.06.84l-9.2,7.18A.7.7,0,0,1,147.77,77.15Z"/><path class="cls-1" d="M184.94,69.75c.47,0,.71.24.71.65v4.81a1.45,1.45,0,0,1-.36,1L170.93,91.24h14a.66.66,0,0,1,.71.71v4.63a.63.63,0,0,1-.71.71H163.09a.63.63,0,0,1-.71-.71V91.83a1.23,1.23,0,0,1,.42-1L177,75.75H163.09c-.47,0-.71-.24-.71-.66V70.4c0-.41.24-.65.71-.65Z"/></svg>